<svg xmlns="http://www.w3.org/2000/svg" width="75.046" height="20" viewBox="0 0 75.046 20">
  <g id="Group_292" data-name="Group 292" transform="translate(-727.814 -608.43)">
    <path id="Path_899" data-name="Path 899" d="M319.537,385.13c2.449,0,4.71,1.329,4.4,4.64-.375,3.936-2.483,6.113-5.81,6.123h-2.907c-.418,0-.62.341-.729,1.04l-.562,3.574c-.084.54-.362.806-.77.806h-2.7c-.431,0-.581-.275-.485-.892L312.2,386.1c.111-.7.375-.967.856-.967h6.473Zm-4.4,7.669h2.2c1.377-.052,2.292-1.006,2.384-2.727a1.663,1.663,0,0,0-1.8-1.818l-2.073.009-.71,4.535Zm16.156,7.418c.247-.225.5-.341.463-.064l-.088.663c-.045.347.092.53.414.53h2.4c.4,0,.6-.163.7-.789l1.48-9.292c.075-.467-.039-.7-.394-.7h-2.642c-.238,0-.354.133-.416.5l-.1.572c-.051.3-.187.35-.315.051-.448-1.061-1.591-1.537-3.186-1.5-3.705.077-6.2,2.89-6.471,6.5a4.466,4.466,0,0,0,4.427,4.979,4.752,4.752,0,0,0,3.729-1.443h0Zm-2.013-1.43a2.415,2.415,0,0,1-2.476-2.832,3.449,3.449,0,0,1,3.317-2.832,2.415,2.415,0,0,1,2.476,2.832,3.447,3.447,0,0,1-3.317,2.832Zm12.088-8.246h-2.436c-.5,0-.707.375-.547.836l3.025,8.857-2.967,4.215c-.249.352-.056.673.294.673h2.738a.838.838,0,0,0,.813-.4l9.3-13.343c.287-.41.152-.841-.319-.841h-2.592c-.444,0-.622.176-.877.545l-3.879,5.622-1.734-5.635a.742.742,0,0,0-.821-.528Z" transform="translate(417.871 223.304)" fill="#113984" fill-rule="evenodd"/>
    <path id="Path_900" data-name="Path 900" d="M542.205,385.114c2.449,0,4.709,1.329,4.4,4.64-.375,3.935-2.483,6.113-5.81,6.123h-2.9c-.418,0-.62.341-.729,1.04l-.562,3.574c-.084.54-.362.806-.77.806h-2.7c-.431,0-.581-.275-.485-.892l2.236-14.327c.111-.7.375-.967.856-.967h6.473Zm-4.4,7.669H540c1.377-.052,2.292-1.006,2.384-2.727a1.663,1.663,0,0,0-1.8-1.818l-2.073.009-.71,4.535Zm16.156,7.418c.247-.225.5-.341.463-.064l-.088.663c-.045.347.092.53.414.53h2.4c.4,0,.6-.163.7-.789l1.48-9.292c.075-.467-.039-.7-.393-.7H556.3c-.238,0-.354.133-.416.5l-.1.572c-.051.3-.187.35-.315.051-.448-1.061-1.591-1.537-3.186-1.5-3.705.077-6.2,2.89-6.471,6.5a4.466,4.466,0,0,0,4.427,4.979,4.752,4.752,0,0,0,3.729-1.443h0Zm-2.011-1.43a2.415,2.415,0,0,1-2.476-2.832,3.449,3.449,0,0,1,3.317-2.832,2.415,2.415,0,0,1,2.476,2.832,3.449,3.449,0,0,1-3.317,2.832Zm11.081,2.575h-2.774a.328.328,0,0,1-.339-.375l2.436-15.435a.478.478,0,0,1,.461-.375h2.774a.328.328,0,0,1,.339.375l-2.436,15.435a.478.478,0,0,1-.461.379Z" transform="translate(236.931 223.32)" fill="#009ee3" fill-rule="evenodd"/>
  </g>
</svg>
