<svg xmlns="http://www.w3.org/2000/svg" width="42" height="42" viewBox="0 0 42 42">
  <g id="Group_209" data-name="Group 209" transform="translate(-0.261)" opacity="0.5">
    <circle id="Ellipse_9" data-name="Ellipse 9" cx="21" cy="21" r="21" transform="translate(0.261)" fill="#585858"/>
    <g id="Group_207" data-name="Group 207" transform="translate(7.214 7.213)">
      <g id="Group_208" data-name="Group 208" transform="translate(0)">
        <path id="Path_862" data-name="Path 862" d="M485.271,131.792A7.209,7.209,0,1,0,492.481,139a7.2,7.2,0,0,0-7.211-7.207Zm0,11.54a4.339,4.339,0,1,1,4.342-4.339A4.336,4.336,0,0,1,485.271,143.332Z" transform="translate(-471.216 -125.268)" fill="#fff" fill-rule="evenodd"/>
        <path id="Path_861" data-name="Path 861" d="M494.821,129.711H484.312a8.436,8.436,0,0,0-8.433,8.433v10.5a8.424,8.424,0,0,0,8.433,8.427h10.5a8.423,8.423,0,0,0,8.427-8.427v-10.5a8.412,8.412,0,0,0-8.418-8.433Zm5.8,17.923a6.811,6.811,0,0,1-6.812,6.812h-8.483a6.811,6.811,0,0,1-6.812-6.812v-8.487a6.808,6.808,0,0,1,6.812-6.809h8.483a6.812,6.812,0,0,1,6.813,6.809Z" transform="translate(-475.879 -129.711)" fill="#fff" fill-rule="evenodd"/>
        <path id="Path_863" data-name="Path 863" d="M485.58,133.007a1.831,1.831,0,1,1-1.831-1.837A1.829,1.829,0,0,1,485.58,133.007Z" transform="translate(-462.986 -126.596)" fill="#fff" fill-rule="evenodd"/>
      </g>
    </g>
  </g>
</svg>
