<svg id="ico_pinterest" data-name="ico pinterest" xmlns="http://www.w3.org/2000/svg" width="30" height="30" viewBox="0 0 30 30">
  <rect id="Rectangle_25" data-name="Rectangle 25" width="30" height="29.999" rx="14.999" fill="#fff"/>
  <path id="Path_835" data-name="Path 835" d="M0,15A15,15,0,0,0,8.979,28.738a13.179,13.179,0,0,1,.261-3.444c.288-1.218,1.93-8.173,1.93-8.173a5.762,5.762,0,0,1-.479-2.373c0-2.223,1.288-3.883,2.893-3.883a2.009,2.009,0,0,1,2.024,2.252c0,1.372-.875,3.423-1.325,5.323a2.322,2.322,0,0,0,2.368,2.889c2.842,0,4.756-3.65,4.756-7.975,0-3.287-2.214-5.748-6.242-5.748A7.1,7.1,0,0,0,7.78,14.789a4.331,4.331,0,0,0,.989,2.942.727.727,0,0,1,.216.836c-.072.276-.237.94-.306,1.2a.517.517,0,0,1-.751.375C5.832,19.29,4.856,17,4.856,14.415c0-4.261,3.594-9.37,10.721-9.37,5.727,0,9.5,4.144,9.5,8.593,0,5.884-3.271,10.28-8.094,10.28a4.3,4.3,0,0,1-3.665-1.87s-.871,3.456-1.055,4.123a12.56,12.56,0,0,1-1.51,3.213A15,15,0,1,0,0,15Z" transform="translate(0)" fill="#cb1f27"/>
</svg>
