<svg xmlns="http://www.w3.org/2000/svg" width="42" height="42" viewBox="0 0 42 42">
  <g id="Group_210" data-name="Group 210" transform="translate(0.014)" opacity="0.5">
    <circle id="Ellipse_10" data-name="Ellipse 10" cx="21" cy="21" r="21" transform="translate(-0.014)" fill="#585858"/>
    <path id="Path_864" data-name="Path 864" d="M49.941,39.842a5.663,5.663,0,0,0-1.042-2.6,3.747,3.747,0,0,0-2.626-1.11c-3.665-.265-9.167-.265-9.167-.265H37.1s-5.5,0-9.167.265a3.744,3.744,0,0,0-2.625,1.11,5.663,5.663,0,0,0-1.042,2.6A39.732,39.732,0,0,0,24,44.083v1.988a39.7,39.7,0,0,0,.262,4.241,5.665,5.665,0,0,0,1.042,2.6,4.441,4.441,0,0,0,2.889,1.121c2.1.2,8.91.264,8.91.264s5.506-.008,9.173-.273A3.749,3.749,0,0,0,48.9,52.913a5.668,5.668,0,0,0,1.042-2.6,39.846,39.846,0,0,0,.261-4.241V44.083a39.681,39.681,0,0,0-.262-4.241M34.065,48.824V40.773l7.742,4.039Z" transform="translate(-15.585 -23.844)" fill="#fff"/>
  </g>
</svg>
