<svg xmlns="http://www.w3.org/2000/svg" width="43" height="42" viewBox="0 0 43 42">
  <g id="ico_pinterest" data-name="ico pinterest" opacity="0.5">
    <rect id="Rectangle_25" data-name="Rectangle 25" width="43" height="41.999" rx="21" transform="translate(0)" fill="#fff"/>
    <path id="Path_835" data-name="Path 835" d="M0,21A20.992,20.992,0,0,0,12.87,40.234a18.032,18.032,0,0,1,.374-4.822c.413-1.7,2.766-11.443,2.766-11.443a7.913,7.913,0,0,1-.687-3.323c0-3.112,1.847-5.436,4.146-5.436a2.838,2.838,0,0,1,2.9,3.153c0,1.92-1.254,4.792-1.9,7.452a3.273,3.273,0,0,0,3.393,4.045c4.074,0,6.817-5.11,6.817-11.165,0-4.6-3.174-8.047-8.946-8.047-6.522,0-10.585,4.75-10.585,10.057a5.975,5.975,0,0,0,1.417,4.119,1,1,0,0,1,.309,1.17c-.1.386-.34,1.317-.438,1.685a.744.744,0,0,1-1.077.526c-3-1.2-4.4-4.411-4.4-8.023,0-5.965,5.151-13.118,15.366-13.118,8.209,0,13.611,5.8,13.611,12.03,0,8.238-4.689,14.392-11.6,14.392-2.321,0-4.5-1.226-5.253-2.618,0,0-1.248,4.838-1.513,5.773a17.4,17.4,0,0,1-2.164,4.5A21.958,21.958,0,0,0,21.5,42,21.255,21.255,0,0,0,43,21,21.255,21.255,0,0,0,21.5,0,21.255,21.255,0,0,0,0,21Z" transform="translate(0)" fill="#585858"/>
  </g>
</svg>
