<svg xmlns="http://www.w3.org/2000/svg" width="388" height="50" viewBox="0 0 388 50">
  <g id="Group_317" data-name="Group 317" transform="translate(-460 -598)">
    <g id="Group_316" data-name="Group 316">
      <g id="Rectangle_79" data-name="Rectangle 79" transform="translate(460 598)" fill="#fff" stroke="#b0bec9" stroke-width="1">
        <rect width="388" height="50" rx="25" stroke="none"/>
        <rect x="0.5" y="0.5" width="387" height="49" rx="24.5" fill="none"/>
      </g>
      <path id="Path_901" data-name="Path 901" d="M25,0H220a25,25,0,0,1,0,50H25A25,25,0,0,1,25,0Z" transform="translate(460 598)" fill="#1473e6"/>
      <g id="Group_291" data-name="Group 291" transform="translate(436 -311)">
        <g id="visa-color" transform="translate(89 926)">
          <rect id="card_bg" width="24" height="16" rx="2" fill="#2a2a6c"/>
          <path id="visa-logo" d="M8.51,4.78a3.961,3.961,0,0,1-1.33-.24l.22-1a2.485,2.485,0,0,0,1.127.273l.113,0c.332,0,.71-.24.71-.45s-.179-.315-.62-.57l-.014-.008c-.438-.253-1.037-.6-1.037-1.252,0-.9.823-1.53,2-1.53a3.234,3.234,0,0,1,1.11.2l-.21,1A2.327,2.327,0,0,0,9.616.99c-.072,0-.145,0-.217.01-.345.041-.5.225-.5.39,0,.216.269.36.585.527.483.255,1.085.572,1.085,1.3l.021-.02C10.59,4.16,9.773,4.78,8.51,4.78Zm3.209-.039H10.46L12.26.45a.549.549,0,0,1,.508-.34h1l1,4.629h-1.1l-.17-.69H11.97l-.25.69ZM12.96,1.36,12.33,3.1l1.07-.01ZM6.33,4.73H5.14L6.14.1H7.33l-1,4.63Zm-2.65,0H2.4l-1-3.69A.531.531,0,0,0,1.12.63,5.252,5.252,0,0,0,0,.24V.1H2a.556.556,0,0,1,.55.48l.51,2.67L4.4.1H5.62L3.68,4.73Z" transform="translate(4.6 5.59)" fill="#fff"/>
        </g>
        <g id="mastercard-color" transform="translate(120.001 926)">
          <rect id="card_bg-2" data-name="card_bg" width="24" height="16" rx="2" fill="#f2f0ec"/>
          <g id="mastercard" transform="translate(2 1)">
            <g id="Group" opacity="0">
              <rect id="Rectangle" width="19.35" height="12.8" transform="translate(0.32 0.6)" fill="#fff"/>
            </g>
            <rect id="Rectangle-2" data-name="Rectangle" width="5.11" height="8.34" transform="translate(7.45 2.83)" fill="#f26122"/>
            <path id="Path" d="M6.571,5.3a5.31,5.31,0,0,1,2-4.17,5.3,5.3,0,1,0,0,8.34A5.29,5.29,0,0,1,6.571,5.3Z" transform="translate(1.429 1.7)" fill="#ea1d25"/>
            <path id="Shape" transform="translate(18 10.08)" fill="#f69e1e"/>
            <path id="Path-2" data-name="Path" d="M8.58,5.307A5.31,5.31,0,0,1,0,9.477a5.31,5.31,0,0,0,2.023-4.17A5.31,5.31,0,0,0,0,1.137a5.3,5.3,0,0,1,8.58,4.17Z" transform="translate(10 1.693)" fill="#f69e1e"/>
          </g>
        </g>
        <g id="americanexpress-color" transform="translate(149.999 926)">
          <rect id="Rectangle-3" data-name="Rectangle" width="24" height="16" rx="4" fill="#fff"/>
          <g id="amex">
            <path id="Path-3" data-name="Path" d="M4.44,8.95v4.08H8.57L9,12.42l.42.61h2.525v-.92h.28a2.465,2.465,0,0,0,.75-.11v1.03H14.69V12.3l.58.73h7.81a1.675,1.675,0,0,0,.91-.25V14.5A2,2,0,0,1,22.045,16H2a2,2,0,0,1-2-2V7.7H1.14l.235-.61h.56l.23.61h9.17V6.97l.58.73h2.4V7.33a2,2,0,0,0,1.21.37h1.435l.23-.61h.56L18,7.7h2.45V6.91l.5.79h1.69V3.62h-1.8v.83l-.535-.83H18.74V4.67l-.5-1.05H15.57a1.94,1.94,0,0,0-1.25.41V3.62H5.5l-.3.88-.3-.9h-2V4.65L2.43,3.6H.8L0,5.5V2A2,2,0,0,1,2,0H22.045A2,2,0,0,1,24,1.5V8.95H9.43L9,9.55l-.42-.6Z" transform="translate(0 0)" fill="#296db6"/>
            <path id="Shape-2" data-name="Shape" d="M15.482,2.846l-.072,0H13.95v-.6h1.46a.258.258,0,0,0,.051.005.255.255,0,1,0-.051-.5h-.66a.785.785,0,0,1-.88-.83.87.87,0,0,1,.97-.88h1.465l-.27.6H14.82a.257.257,0,0,0-.051-.005.255.255,0,1,0,.051.5h.654v-.02a.8.8,0,0,1,.106-.007.773.773,0,0,1,.774.817.874.874,0,0,1-.873.923Zm2.6-.008c-.03,0-.059,0-.089,0H16.555v-.6H18a.25.25,0,0,0,.05.005.255.255,0,1,0-.05-.5h-.645A.784.784,0,0,1,16.475.9a.87.87,0,0,1,.869-.886.875.875,0,0,1,.1.006H18.91l-.27.61H17.425L17.41.613a.255.255,0,1,0,0,.5h.68a.809.809,0,0,1,.82.47v.67A.887.887,0,0,1,18.079,2.838Zm-12.628,0H4.59l-.68-.91-.679.9H2.41l1.1-1.4L2.365,0h.85L3.91.893l.7-.869h.83L4.31,1.423,5.449,2.832Zm3.7-.009H8.47V.033H10a.907.907,0,0,1,.107-.006.9.9,0,0,1,.1,1.787l.943,1.008-.853,0-.84-1H9.15v1ZM9.15.6v.65H9.94v-.03a.316.316,0,0,0,.046,0,.3.3,0,0,0,.3-.313A.31.31,0,0,0,9.98.6L9.94.6Zm4.44,2.22H11.315V.033H13.59v.6L12.005.613v.5H13.55v.61H12.005v.5H13.59v.6Zm-7.335,0H5.57V.023H7.125V0c.026,0,.052,0,.078,0a.9.9,0,0,1,.624.252.907.907,0,0,1,.278.691.932.932,0,0,1-.931.953l-.07,0h-.85v.929Zm0-2.22v.71h.81v-.02a.345.345,0,0,0,0-.69Zm-3.99,2.22H0V0H2.265V.6L.68.613v.5H2.235v.61H.68v.5H2.265v.6Z" transform="translate(5.09 9.577)" fill="#296db6"/>
            <path id="Shape-3" data-name="Shape" d="M19.95,2.848h-.67V.028h.835l1,1.5.19.32V.007H22V2.828h-.824L20.13,1.238l-.18-.31V2.847Zm-.8,0h-.77l-.239-.59H16.8l-.239.571h-.731L17.045.007h.9l1.2,2.839ZM17.465.588h0l-.18.44-.26.66H17.9l-.27-.66-.169-.44ZM3.325,2.848h-.77l-.24-.59H1l-.26.571H0L1.225.007h.89L3.324,2.846ZM1.645.588h0l-.18.44-.275.66H2.1l-.27-.66-.18-.44ZM15.393,2.83A1.251,1.251,0,0,1,14.15,1.437V1.4A1.276,1.276,0,0,1,15.42,0l.08,0h.79v.61h-.774A.709.709,0,0,0,15,.838a.7.7,0,0,0-.184.56v.04a.7.7,0,0,0,.693.791h.262l-.275.6h-.04Zm-4.5,0h-.7V.007h1.526a.886.886,0,0,1,1,.89.872.872,0,0,1-.77.89l.939,1.039-.849,0-.84-1H10.9v1Zm0-2.221v.62h.789a.306.306,0,0,0,.35-.311A.315.315,0,0,0,11.72.606l-.035,0ZM4.12,2.829H3.455V.007H4.56l.56,1.63.09.31.09-.31L5.85.007h1.1v2.82H6.285V.547l-.13.43L5.5,2.828H4.9L4.26.977,4.12.547V2.828Zm9.62,0h-.685V.007h.685v2.82Zm-3.991,0H7.5V.007H9.75v.6L8.165.617v.5H9.71v.609H8.165v.5H9.75v.6Z" transform="translate(0 4.242)" fill="#296db6"/>
          </g>
        </g>
        <g id="discover-color" transform="translate(181 926)">
          <rect id="card_bg-3" data-name="card_bg" width="24" height="16" rx="2" fill="#fff"/>
          <path id="card_bg-2-2" data-name="card_bg-2" d="M22,16H2a2,2,0,0,1-2-2V2A2,2,0,0,1,2,0H22a2,2,0,0,1,2,2V14A2,2,0,0,1,22,16ZM2,1A1,1,0,0,0,1,2V14a1,1,0,0,0,1,1H22a1,1,0,0,0,1-1V2a1,1,0,0,0-1-1Z" fill="#231f20"/>
          <g id="discover" transform="translate(2 5)">
            <path id="Path-4" data-name="Path" d="M17,0V5.14a1,1,0,0,1-1,1H0C11,4.25,17,0,17,0Z" transform="translate(4 3.86)" fill="#ee7623"/>
            <path id="Shape-4" data-name="Shape" d="M1.01,3.207l-.1,0H0V0H.91c.039,0,.078,0,.117,0A1.61,1.61,0,0,1,2.06,2.844,1.708,1.708,0,0,1,1.01,3.207ZM.63.544h0V2.684H.79c.035,0,.07,0,.1,0A1.144,1.144,0,0,0,1.65,2.4a1.069,1.069,0,0,0,.34-.8A1.056,1.056,0,0,0,1.65.8,1.166,1.166,0,0,0,.79.544Z" transform="translate(0 0.316)" fill="#231f20"/>
            <rect id="Rectangle-4" data-name="Rectangle" width="0.63" height="3.21" transform="translate(2.93 0.32)" fill="#231f20"/>
            <path id="Path-5" data-name="Path" d="M1.29,1.292c-.37-.14-.48-.23-.48-.41a.416.416,0,0,1,.46-.35.63.63,0,0,1,.51.26l.33-.43a1.39,1.39,0,0,0-1-.36,1,1,0,0,0-1,.92c0,.44.2.67.79.88.25.09.37.15.44.18a.41.41,0,0,1,.18.34.45.45,0,0,1-.43.42.75.75,0,0,1-.69-.43l-.4.43a1.25,1.25,0,0,0,1.11.6,1,1,0,0,0,1.1-1.05C2.21,1.742,2.01,1.552,1.29,1.292Z" transform="translate(3.79 0.258)" fill="#231f20"/>
            <path id="Path-6" data-name="Path" d="M0,1.68A1.66,1.66,0,0,0,1.69,3.36a1.75,1.75,0,0,0,.78-.19V2.43a1,1,0,0,1-.75.33A1,1,0,0,1,.64,1.66,1.06,1.06,0,0,1,1.69.58a1,1,0,0,1,.78.36V.2A1.58,1.58,0,0,0,1.7,0,1.69,1.69,0,0,0,0,1.68Z" transform="translate(6.21 0.24)" fill="#231f20"/>
            <path id="Path-7" data-name="Path" d="M1.54,2.15.68,0H0L1.36,3.29H1.7L3.08,0H2.41L1.54,2.15Z" transform="translate(12.11 0.32)" fill="#231f20"/>
            <path id="Path-8" data-name="Path" d="M0,3.21H1.77V2.66H.62V1.8H1.73V1.25H.62V.54H1.77V0H0V3.21Z" transform="translate(15.48 0.32)" fill="#231f20"/>
            <path id="Shape-5" data-name="Shape" d="M.63,3.2H0V0H.92c.725,0,1.14.342,1.14.94a.867.867,0,0,1-.73.921l1,1.339-.759,0L.7,1.91H.63V3.2ZM.63.47v1H.81c.381,0,.6-.189.6-.519C1.41.636,1.206.47.82.47Z" transform="translate(17.67 0.32)" fill="#231f20"/>
            <path id="Path-9" data-name="Path" d="M3.42,1.7A1.71,1.71,0,1,1,1.71,0,1.71,1.71,0,0,1,3.42,1.7Z" transform="translate(8.88 0.22)" fill="#ee7623"/>
            <path id="Shape-6" data-name="Shape" d="M.07.291H0V0H.1C.21,0,.21.028.21.09A.07.07,0,0,1,.15.16L.239.288.16.29.07.17V.29Z" transform="translate(19.85 0.29)" fill="#231f20"/>
            <path id="Shape-7" data-name="Shape" d="M.24.49A.24.24,0,0,1,0,.25.25.25,0,0,1,.24,0,.249.249,0,0,1,.48.25.24.24,0,0,1,.24.49Zm0-.43A.19.19,0,0,0,.05.25.2.2,0,0,0,.24.46H.246A.158.158,0,0,0,.37.4H.34A.229.229,0,0,0,.43.25.191.191,0,0,0,.24.06Z" transform="translate(19.76 0.18)" fill="#231f20"/>
          </g>
        </g>
      </g>
    </g>
    <g id="Group_292" data-name="Group 292" transform="translate(11.186 4.57)">
      <path id="Path_899" data-name="Path 899" d="M319.537,385.13c2.449,0,4.71,1.329,4.4,4.64-.375,3.936-2.483,6.113-5.81,6.123h-2.907c-.418,0-.62.341-.729,1.04l-.562,3.574c-.084.54-.362.806-.77.806h-2.7c-.431,0-.581-.275-.485-.892L312.2,386.1c.111-.7.375-.967.856-.967h6.473Zm-4.4,7.669h2.2c1.377-.052,2.292-1.006,2.384-2.727a1.663,1.663,0,0,0-1.8-1.818l-2.073.009-.71,4.535Zm16.156,7.418c.247-.225.5-.341.463-.064l-.088.663c-.045.347.092.53.414.53h2.4c.4,0,.6-.163.7-.789l1.48-9.292c.075-.467-.039-.7-.394-.7h-2.642c-.238,0-.354.133-.416.5l-.1.572c-.051.3-.187.35-.315.051-.448-1.061-1.591-1.537-3.186-1.5-3.705.077-6.2,2.89-6.471,6.5a4.466,4.466,0,0,0,4.427,4.979,4.752,4.752,0,0,0,3.729-1.443h0Zm-2.013-1.43a2.415,2.415,0,0,1-2.476-2.832,3.449,3.449,0,0,1,3.317-2.832,2.415,2.415,0,0,1,2.476,2.832,3.447,3.447,0,0,1-3.317,2.832Zm12.088-8.246h-2.436c-.5,0-.707.375-.547.836l3.025,8.857-2.967,4.215c-.249.352-.056.673.294.673h2.738a.838.838,0,0,0,.813-.4l9.3-13.343c.287-.41.152-.841-.319-.841h-2.592c-.444,0-.622.176-.877.545l-3.879,5.622-1.734-5.635a.742.742,0,0,0-.821-.528Z" transform="translate(417.871 223.304)" fill="#113984" fill-rule="evenodd"/>
      <path id="Path_900" data-name="Path 900" d="M542.205,385.114c2.449,0,4.709,1.329,4.4,4.64-.375,3.935-2.483,6.113-5.81,6.123h-2.9c-.418,0-.62.341-.729,1.04l-.562,3.574c-.084.54-.362.806-.77.806h-2.7c-.431,0-.581-.275-.485-.892l2.236-14.327c.111-.7.375-.967.856-.967h6.473Zm-4.4,7.669H540c1.377-.052,2.292-1.006,2.384-2.727a1.663,1.663,0,0,0-1.8-1.818l-2.073.009-.71,4.535Zm16.156,7.418c.247-.225.5-.341.463-.064l-.088.663c-.045.347.092.53.414.53h2.4c.4,0,.6-.163.7-.789l1.48-9.292c.075-.467-.039-.7-.393-.7H556.3c-.238,0-.354.133-.416.5l-.1.572c-.051.3-.187.35-.315.051-.448-1.061-1.591-1.537-3.186-1.5-3.705.077-6.2,2.89-6.471,6.5a4.466,4.466,0,0,0,4.427,4.979,4.752,4.752,0,0,0,3.729-1.443h0Zm-2.011-1.43a2.415,2.415,0,0,1-2.476-2.832,3.449,3.449,0,0,1,3.317-2.832,2.415,2.415,0,0,1,2.476,2.832,3.449,3.449,0,0,1-3.317,2.832Zm11.081,2.575h-2.774a.328.328,0,0,1-.339-.375l2.436-15.435a.478.478,0,0,1,.461-.375h2.774a.328.328,0,0,1,.339.375l-2.436,15.435a.478.478,0,0,1-.461.379Z" transform="translate(236.931 223.32)" fill="#009ee3" fill-rule="evenodd"/>
    </g>
  </g>
</svg>
