<svg xmlns="http://www.w3.org/2000/svg" width="152.918" height="30" viewBox="0 0 152.918 30">
  <g id="Group_318" data-name="Group 318" transform="translate(-577.469 -1410.66)">
    <g id="_2307890219872" transform="translate(577.469 1410.66)">
      <path id="Path_902" data-name="Path 902" d="M1283.2,0h77.53a1.271,1.271,0,0,1,.409.051,1.2,1.2,0,0,1,.409.1c.153.051.255.153.409.2l.307.307a1.358,1.358,0,0,1,.256.307,1.03,1.03,0,0,1,.2.409,3.547,3.547,0,0,1,.153.409c0,.1.051.256.051.409V27.8c0,.153-.051.307-.051.409a3.547,3.547,0,0,1-.153.409,1.537,1.537,0,0,1-.2.409,1.358,1.358,0,0,1-.256.307l-.307.307a1.526,1.526,0,0,0-.409.2c-.153.051-.256.051-.409.1a1.271,1.271,0,0,1-.409.051H1283.2a1.415,1.415,0,0,1-.46-.051c-.153-.051-.256-.051-.409-.1a2.935,2.935,0,0,0-.358-.2,2.216,2.216,0,0,1-.358-.307,1.354,1.354,0,0,1-.255-.307,1.536,1.536,0,0,1-.2-.409,3.5,3.5,0,0,1-.153-.409V1.789a3.5,3.5,0,0,1,.153-.409,1.03,1.03,0,0,1,.2-.409,1.354,1.354,0,0,1,.255-.307,2.334,2.334,0,0,1,.716-.511,1.2,1.2,0,0,1,.409-.1A1.415,1.415,0,0,1,1283.2,0Z" transform="translate(-1281)" fill="#323b3f"/>
      <path id="Path_903" data-name="Path 903" d="M1770.446,139.388h-4.4v-.92l1.584-1.635a12.064,12.064,0,0,0,.92-.971,4.53,4.53,0,0,1,.307-.511,1.571,1.571,0,0,0,.051-.511.7.7,0,0,0-.716-.716,1.633,1.633,0,0,0-.716.153,2.813,2.813,0,0,0-.715.46l-.716-.818a4.7,4.7,0,0,1,.767-.562,2.566,2.566,0,0,1,.664-.256,3.477,3.477,0,0,1,.767-.1,3.341,3.341,0,0,1,1.073.2,1.554,1.554,0,0,1,.665.613,1.338,1.338,0,0,1,.255.869,2.122,2.122,0,0,1-.153.818,4.565,4.565,0,0,1-.46.818c-.2.256-.613.613-1.124,1.124l-.818.767v.051h2.76Zm2.913-4.037a2.115,2.115,0,0,1,1.431.511,1.893,1.893,0,0,1,.511,1.431,2.042,2.042,0,0,1-.613,1.584,2.646,2.646,0,0,1-1.84.562,3.826,3.826,0,0,1-1.687-.307v-1.175a1.733,1.733,0,0,0,.767.307,2.533,2.533,0,0,0,.869.1c.767,0,1.175-.307,1.175-.971s-.409-.971-1.227-.971c-.153,0-.307.051-.511.051-.2.051-.307.051-.46.1l-.511-.307.256-3.169h3.373v1.124h-2.249l-.1,1.227.153-.051C1772.848,135.4,1773.1,135.351,1773.359,135.351Zm2.658,1.38a4.019,4.019,0,0,1,.817-2.811,3.009,3.009,0,0,1,2.351-.869,3.632,3.632,0,0,1,.818.051v1.073a1.985,1.985,0,0,0-.766-.1,2.237,2.237,0,0,0-1.073.2,1.554,1.554,0,0,0-.665.613,3.048,3.048,0,0,0-.256,1.124h.051a1.567,1.567,0,0,1,1.38-.716,1.733,1.733,0,0,1,1.329.511,2.236,2.236,0,0,1,.46,1.482,2.3,2.3,0,0,1-.562,1.584,2.086,2.086,0,0,1-1.584.562,2.428,2.428,0,0,1-1.227-.307,1.966,1.966,0,0,1-.767-.92A3.333,3.333,0,0,1,1776.017,136.731Zm2.3,1.687a.728.728,0,0,0,.613-.307,1.3,1.3,0,0,0,.256-.818,1.32,1.32,0,0,0-.2-.715.882.882,0,0,0-.664-.256.972.972,0,0,0-.665.256.729.729,0,0,0-.307.613,1.586,1.586,0,0,0,.255.869A.977.977,0,0,0,1778.317,138.417Zm3.22-5.315h1.942a4.513,4.513,0,0,1,1.942.358,1.339,1.339,0,0,1,.613,1.227,1.429,1.429,0,0,1-.306.92,1,1,0,0,1-.665.46h0a1.472,1.472,0,0,1,.869.511,1.816,1.816,0,0,1,.256.971,1.581,1.581,0,0,1-.614,1.329,2.759,2.759,0,0,1-1.687.511h-2.351Zm1.329,2.5h.767a1.38,1.38,0,0,0,.767-.2.6.6,0,0,0,.255-.562.629.629,0,0,0-.255-.511,1.792,1.792,0,0,0-.818-.153h-.716Zm0,1.022v1.635h.869a1.3,1.3,0,0,0,.818-.2.883.883,0,0,0,.256-.664c0-.511-.409-.767-1.125-.767Zm4.549,2.76V133.1h1.329v6.286Zm5.315,0H1791.4v-5.162h-1.687V133.1h4.753v1.124h-1.738Zm-23.458,8.484a1.358,1.358,0,0,1-.511,1.073,2.056,2.056,0,0,1-1.329.358A3.11,3.11,0,0,1,1766,149v-.971a4.505,4.505,0,0,0,.869.307,1.4,1.4,0,0,0,.613.1,1.576,1.576,0,0,0,.562-.1.58.58,0,0,0,.153-.409.383.383,0,0,0-.051-.256.51.51,0,0,0-.256-.2,2.738,2.738,0,0,0-.613-.358,7.025,7.025,0,0,1-.716-.409,2.812,2.812,0,0,1-.358-.46,1.089,1.089,0,0,1-.153-.613,1.218,1.218,0,0,1,.46-1.022,1.865,1.865,0,0,1,1.227-.409,3.947,3.947,0,0,1,.766.1,6.179,6.179,0,0,1,.715.256l-.358.818c-.255-.1-.46-.153-.613-.2a1.916,1.916,0,0,0-.511-.051c-.2,0-.358,0-.46.1a.464.464,0,0,0-.153.358.384.384,0,0,0,.051.256c.051.051.1.153.2.2a5.636,5.636,0,0,0,.664.358,3.167,3.167,0,0,1,.971.664A1.414,1.414,0,0,1,1769.271,147.872Zm3.782,0a1.32,1.32,0,0,1-.46,1.073,2.056,2.056,0,0,1-1.329.358,3.111,3.111,0,0,1-1.431-.307v-.971a4.5,4.5,0,0,0,.869.307,1.3,1.3,0,0,0,.613.1,1.58,1.58,0,0,0,.563-.1.582.582,0,0,0,.153-.409.382.382,0,0,0-.051-.256.509.509,0,0,0-.255-.2,2.349,2.349,0,0,0-.664-.358,5.391,5.391,0,0,1-.665-.409,2.8,2.8,0,0,1-.357-.46,1.087,1.087,0,0,1-.154-.613,1.219,1.219,0,0,1,.46-1.022,1.865,1.865,0,0,1,1.227-.409,3.947,3.947,0,0,1,.767.1,6.2,6.2,0,0,1,.716.256l-.358.818a4.736,4.736,0,0,0-.664-.2,1.415,1.415,0,0,0-.46-.051c-.2,0-.358,0-.46.1a.386.386,0,0,0-.2.358.39.39,0,0,0,.1.256c.051.051.1.153.2.2a5.626,5.626,0,0,0,.665.358,2.366,2.366,0,0,1,.92.664A1.126,1.126,0,0,1,1773.053,147.872Zm.92,1.38v-4.957h1.073v4.089h1.993v.869Zm8.586,0H1779.7v-4.957h2.862v.869h-1.789v1.073h1.687v.869h-1.687v1.278h1.789Zm4.446,0h-1.022v-2.2a1.159,1.159,0,0,0-.154-.664.647.647,0,0,0-.46-.2.669.669,0,0,0-.613.307,1.615,1.615,0,0,0-.2.971v1.789h-1.022V145.47h.767l.153.46h.051a1.774,1.774,0,0,1,.46-.409,1.632,1.632,0,0,1,.716-.153,1.539,1.539,0,0,1,1.022.358,1.622,1.622,0,0,1,.306,1.022Zm2.607.051c-1.176,0-1.738-.613-1.738-1.942a2.236,2.236,0,0,1,.46-1.482,1.891,1.891,0,0,1,1.38-.511,2.84,2.84,0,0,1,1.175.256l-.307.818-.46-.153a1,1,0,0,0-.409-.051c-.511,0-.818.358-.818,1.124s.307,1.124.818,1.124a1.837,1.837,0,0,0,.562-.1,1.2,1.2,0,0,0,.511-.256v.92a2.139,2.139,0,0,1-.511.2A2.5,2.5,0,0,1,1789.612,149.3Zm4.191-3.935c.1,0,.256,0,.307.051l-.051.971a.648.648,0,0,0-.307-.051,1.151,1.151,0,0,0-.767.256.858.858,0,0,0-.307.715v1.942h-1.022V145.47h.818l.153.613h.051a1.3,1.3,0,0,1,1.124-.715Zm.46.1h1.176l.716,2.1a2.593,2.593,0,0,1,.1.664h0c.051-.2.1-.46.153-.664l.716-2.1h1.125l-1.635,4.242a2.079,2.079,0,0,1-.614.92,1.572,1.572,0,0,1-.971.307,1.811,1.811,0,0,1-.511-.1v-.818a.994.994,0,0,0,.409.051.625.625,0,0,0,.46-.153,1.306,1.306,0,0,0,.358-.511l.051-.2Zm6.593,3.833a1.219,1.219,0,0,1-1.022-.46h-.051a2.979,2.979,0,0,0,.051.511v1.584h-1.073V145.47h.869l.153.46h.051a1.148,1.148,0,0,1,1.073-.562,1.334,1.334,0,0,1,1.022.511,2.545,2.545,0,0,1,.409,1.482,2.153,2.153,0,0,1-.2,1.022,1.244,1.244,0,0,1-.511.715A1.231,1.231,0,0,1,1800.855,149.3Zm-.307-3.118a.732.732,0,0,0-.562.256,1.435,1.435,0,0,0-.153.767v.1a2.134,2.134,0,0,0,.153.92.732.732,0,0,0,.562.256c.46,0,.716-.409.716-1.175a1.791,1.791,0,0,0-.153-.818A.641.641,0,0,0,1800.548,146.186Zm4.242,2.3a3.769,3.769,0,0,0,.613-.1v.767a2.475,2.475,0,0,1-.92.153,1.024,1.024,0,0,1-1.176-1.227v-1.84h-.511v-.46l.562-.358.307-.767h.664v.818h1.073v.767h-1.073v1.84a.547.547,0,0,0,.1.307A.739.739,0,0,0,1804.79,148.486Zm1.38-4.037c0-.307.154-.46.562-.46.358,0,.562.153.562.46a.5.5,0,0,1-.154.409.55.55,0,0,1-.409.1C1806.324,144.959,1806.17,144.806,1806.17,144.448Zm1.073,4.8h-1.022V145.47h1.022Zm1.891-1.891a1.208,1.208,0,0,0,.2.818.618.618,0,0,0,.613.307.587.587,0,0,0,.562-.307,1.208,1.208,0,0,0,.2-.818,1.367,1.367,0,0,0-.2-.869c-.1-.2-.307-.256-.614-.256-.255,0-.46.051-.562.256A1.367,1.367,0,0,0,1809.135,147.361Zm2.657,0a2.114,2.114,0,0,1-.511,1.431,1.705,1.705,0,0,1-1.38.511,1.5,1.5,0,0,1-1.584-.92,2.285,2.285,0,0,1-.2-1.022,2.145,2.145,0,0,1,.46-1.482,1.891,1.891,0,0,1,1.38-.511,2.113,2.113,0,0,1,.971.256,1.552,1.552,0,0,1,.614.664A2.379,2.379,0,0,1,1811.792,147.361Zm4.344,1.891h-1.022v-2.2a1.159,1.159,0,0,0-.153-.664.648.648,0,0,0-.46-.2.759.759,0,0,0-.664.307,2.239,2.239,0,0,0-.154.971v1.789h-1.073V145.47h.818l.1.46h.1a1.21,1.21,0,0,1,.46-.409,1.416,1.416,0,0,1,.665-.153,1.442,1.442,0,0,1,1.022.358,1.392,1.392,0,0,1,.358,1.022Z" transform="translate(-1741.213 -126.203)" fill="#fff"/>
      <path id="Path_904" data-name="Path 904" d="M1503.249,230.073a1.19,1.19,0,0,0-.358-.767,1.111,1.111,0,0,0-1.533,0,1.19,1.19,0,0,0-.358.767V231.4h2.249Z" transform="translate(-1489.756 -217.296)" fill="#fff"/>
      <path id="Path_905" data-name="Path 905" d="M1413.6,156.157l-5.264-.869a.327.327,0,0,0-.307,0l-5.264.869a1.218,1.218,0,0,0-.562.307,1.071,1.071,0,0,0-.2.562v6.184a6.117,6.117,0,0,0,1.84,4.344,6.17,6.17,0,0,0,8.688,0,6.117,6.117,0,0,0,1.84-4.344v-6.184a1.073,1.073,0,0,0-.2-.562A1.22,1.22,0,0,0,1413.6,156.157Zm-1.891,8.79a.846.846,0,0,1-.255.613.745.745,0,0,1-.614.256h-5.315a.744.744,0,0,1-.613-.256.846.846,0,0,1-.256-.613V162.29a.873.873,0,0,1,.869-.869h.255v-1.329a2.59,2.59,0,0,1,.665-1.687,2.468,2.468,0,0,1,3.475,0,2.59,2.59,0,0,1,.665,1.687v1.329h.255a.872.872,0,0,1,.869.869Z" transform="translate(-1395.816 -147.316)" fill="#fff"/>
    </g>
    <g id="_2307890222848" transform="translate(671 1410.66)">
      <path id="Path_906" data-name="Path 906" d="M2.964,0H56.474a2.956,2.956,0,0,1,2.913,2.964V27.036A2.956,2.956,0,0,1,56.474,30H2.964A2.966,2.966,0,0,1,0,27.036V2.964A2.966,2.966,0,0,1,2.964,0Z" fill="#323b3f" fill-rule="evenodd"/>
      <path id="Path_907" data-name="Path 907" d="M729.175,313.022l.46.1a2.466,2.466,0,0,1-.153.358.434.434,0,0,1-.255.153.739.739,0,0,1-.358.1,1.221,1.221,0,0,1-.46-.1.615.615,0,0,1-.255-.256.825.825,0,0,1,.715-1.38,1.02,1.02,0,0,1,.46.1.7.7,0,0,1,.255.409l-.409.1a.159.159,0,0,1-.051-.1c-.051-.051-.1-.051-.1-.1h-.153c-.153,0-.2,0-.255.1a.738.738,0,0,0-.1.358.6.6,0,0,0,.1.358.265.265,0,0,0,.2.1c.1,0,.2,0,.256-.1C729.124,313.175,729.124,313.124,729.175,313.022Zm.614-.153a.971.971,0,0,1,.255-.664.815.815,0,0,1,.613-.2.743.743,0,0,1,.869.869,1.491,1.491,0,0,1-.1.46,1.356,1.356,0,0,1-.255.307,1.494,1.494,0,0,1-.46.1,1.513,1.513,0,0,1-.511-.1.524.524,0,0,1-.255-.307A.624.624,0,0,1,729.789,312.869Zm.511,0a.6.6,0,0,0,.1.358.371.371,0,0,0,.511,0,.66.66,0,0,0,.1-.409.432.432,0,0,0-.1-.307c-.051-.1-.153-.1-.256-.1s-.2,0-.255.1A.6.6,0,0,0,730.3,312.869Zm1.482-.818h.715l.256.971.255-.971h.664v1.635h-.409v-1.278l-.358,1.278h-.358l-.307-1.278v1.278h-.46Zm2.2,0h.869c.2,0,.307,0,.409.1a.5.5,0,0,1,.153.409.464.464,0,0,1-.153.358.624.624,0,0,1-.46.153h-.307v.613h-.511Zm.511.664h.153c.1,0,.153,0,.2-.051.051,0,.051-.051.051-.1a.188.188,0,0,0-.051-.153c-.051,0-.1-.051-.2-.051h-.153Zm1.175-.664h.511v1.227h.818v.409h-1.329Zm1.584,0h.511v1.635h-.511Zm1.891,1.38h-.562l-.1.256h-.511l.613-1.635h.562l.613,1.635h-.511Zm-.1-.358-.2-.613-.153.613Zm.92-1.022h.46l.613.92v-.92h.511v1.635h-.511l-.613-.92v.92h-.46Zm1.789,0h1.584v.409h-.562v1.227h-.511V312.46h-.511Z" transform="translate(-690.794 -296.054)" fill="#fff" fill-rule="evenodd"/>
      <path id="Path_908" data-name="Path 908" d="M169.787,150.4l1.482-.46-.46-1.073A10,10,0,0,0,169.787,150.4Zm-20.7.818v.051H151.7c.051,0,.051,0,.051-.051V149.17s4.14.307,4.14-2.453c0-2.147-2.555-2.453-3.424-2.351h-3.373Zm2.606-3.578v-1.789h.613s.92.051,1.022.664v.358a1,1,0,0,1-.971.767Zm14-3.935a1.534,1.534,0,1,0,0-3.066,1.536,1.536,0,1,0,0,3.066Zm3.578,1.789L166.363,139,145,140.227l5.928,16.1,11.346-3.578a4.328,4.328,0,0,1-.613-1.431h-.051a8.676,8.676,0,0,1-1.175,0c-3.986-.2-3.986-3.118-3.986-3.169v-.664c0-.153.1-2.913,3.986-3.22a4.85,4.85,0,0,1,1.227,0,2.937,2.937,0,0,1,1.431.307h0v1.789h0a4.73,4.73,0,0,0-1.431-.46H161a1.8,1.8,0,0,0-1.84,1.533v.664s.051,1.278,1.84,1.584a1.384,1.384,0,0,0,.664,0,3.586,3.586,0,0,0,1.584-.358v.307a2.491,2.491,0,0,1,1.124.511v-5.775h2.658v4.293C167.947,147.279,168.918,145.951,169.276,145.491Z" transform="translate(-137.589 -131.896)" fill="#fff" fill-rule="evenodd"/>
      <path id="Path_909" data-name="Path 909" d="M489.3,239.965a1.519,1.519,0,0,0,.613-.1c.971-.511,4.089-8.228,7.411-10.579.051-.051.1-.051.1-.1v-.051s0-.153-.46-.153c-2.964-.1-6.082,6.133-7.666,8.586-.051.051-.153,0-.153,0a9.072,9.072,0,0,0-2.044-1.738,2.207,2.207,0,0,0-.255-.051,1.538,1.538,0,0,0-.715.307c-.256.256-.2.409-.2.716v.153a17.2,17.2,0,0,0,2.146,2.709A1.716,1.716,0,0,0,489.3,239.965Z" transform="translate(-461.084 -217.273)" fill="#fff" fill-rule="evenodd"/>
      <path id="Path_910" data-name="Path 910" d="M727,188h2.453a3.476,3.476,0,0,1,1.176.2,2.976,2.976,0,0,1,.766.562,2.71,2.71,0,0,1,.409.869,3.892,3.892,0,0,1,.153,1.073,3.149,3.149,0,0,1-.2,1.329,2.922,2.922,0,0,1-.562.818,1.457,1.457,0,0,1-.716.409,4.13,4.13,0,0,1-1.022.153H727Zm1.635,1.227v2.964h.409a2.489,2.489,0,0,0,.766-.1,1.378,1.378,0,0,0,.358-.409,3.969,3.969,0,0,0,.1-.971,2.223,2.223,0,0,0-.255-1.175,1.3,1.3,0,0,0-.971-.307Z" transform="translate(-689.845 -178.392)" fill="#fff" fill-rule="evenodd"/>
      <path id="Path_911" data-name="Path 911" d="M832,190.68l1.584-.1a1.177,1.177,0,0,0,.2.562.86.86,0,0,0,.767.358.763.763,0,0,0,.511-.153.527.527,0,0,0,.2-.409.464.464,0,0,0-.153-.358,2.639,2.639,0,0,0-.869-.307,5.241,5.241,0,0,1-1.584-.664,1.392,1.392,0,0,1-.46-1.073,1.52,1.52,0,0,1,.256-.767,1.6,1.6,0,0,1,.715-.562,3.15,3.15,0,0,1,1.329-.2,2.7,2.7,0,0,1,1.584.358,1.594,1.594,0,0,1,.613,1.227l-1.533.1a.954.954,0,0,0-.255-.511.769.769,0,0,0-.562-.2.625.625,0,0,0-.46.153.309.309,0,0,0-.153.307.274.274,0,0,0,.153.2,1.263,1.263,0,0,0,.562.2,7.042,7.042,0,0,1,1.533.46,1.7,1.7,0,0,1,.716.613,2.141,2.141,0,0,1,.2.818,1.531,1.531,0,0,1-.307.92,1.911,1.911,0,0,1-.767.664,3.417,3.417,0,0,1-1.329.256,2.607,2.607,0,0,1-1.891-.562A2.028,2.028,0,0,1,832,190.68Z" transform="translate(-789.479 -177.443)" fill="#fff" fill-rule="evenodd"/>
      <path id="Path_912" data-name="Path 912" d="M937,190.68l1.584-.1a1.176,1.176,0,0,0,.2.562.86.86,0,0,0,.766.358.763.763,0,0,0,.511-.153.528.528,0,0,0,.2-.409.386.386,0,0,0-.2-.358,1.884,1.884,0,0,0-.818-.307,4.718,4.718,0,0,1-1.584-.664,1.392,1.392,0,0,1-.46-1.073,1.521,1.521,0,0,1,.255-.767,1.606,1.606,0,0,1,.715-.562,3.15,3.15,0,0,1,1.329-.2,2.8,2.8,0,0,1,1.584.358,1.593,1.593,0,0,1,.613,1.227l-1.533.1a.955.955,0,0,0-.256-.511.769.769,0,0,0-.562-.2.625.625,0,0,0-.46.153.309.309,0,0,0-.153.307.274.274,0,0,0,.153.2,1.257,1.257,0,0,0,.511.2,6.81,6.81,0,0,1,1.584.46,1.309,1.309,0,0,1,.664.613,1.486,1.486,0,0,1-.051,1.738,1.755,1.755,0,0,1-.818.664,2.98,2.98,0,0,1-1.278.256,2.607,2.607,0,0,1-1.891-.562A2.028,2.028,0,0,1,937,190.68Z" transform="translate(-889.112 -177.443)" fill="#fff" fill-rule="evenodd"/>
    </g>
  </g>
</svg>
