<svg id="question_answer" data-name="question answer" xmlns="http://www.w3.org/2000/svg" width="26" height="26" viewBox="0 0 26 26">
  <path id="Path_865" data-name="Path 865" d="M0,0H26V26H0Z" fill="none"/>
  <path id="Path_866" data-name="Path 866" d="M25.4,7.2H24.1V17.6a1.3,1.3,0,0,1-1.3,1.3H7.2v1.3a2.608,2.608,0,0,0,2.6,2.6h13L28,28V9.8A2.608,2.608,0,0,0,25.4,7.2Zm-3.9,6.5V4.6A2.608,2.608,0,0,0,18.9,2H4.6A2.608,2.608,0,0,0,2,4.6V21.5l5.2-5.2H18.9A2.608,2.608,0,0,0,21.5,13.7Z" transform="translate(-2 -2)" fill="#585858"/>
</svg>
