<svg xmlns="http://www.w3.org/2000/svg" width="12.542" height="24.035" viewBox="0 0 12.542 24.035">
  <path id="Path_552" data-name="Path 552" d="M61.551,53.178c.748-.029,1.5-.007,2.238-.007h.306V49.294c-.4-.043-.819-.093-1.233-.114-.762-.036-1.525-.071-2.3-.05a5.612,5.612,0,0,0-3.228,1,4.81,4.81,0,0,0-1.945,3.228,11.873,11.873,0,0,0-.135,1.667c-.021.862,0,1.732,0,2.608v.328h-3.7v4.325H55.23V73.159h4.5V62.292h3.677c.185-1.439.371-2.858.563-4.34h-.827c-1.047.007-3.442,0-3.442,0s.007-2.138.036-3.078C59.776,53.606,60.539,53.214,61.551,53.178Z" transform="translate(-51.553 -49.124)" fill="#fff" fill-rule="evenodd"/>
</svg>
