<svg xmlns="http://www.w3.org/2000/svg" width="14" height="9" viewBox="0 0 14 9" fill="none">
                                <path d="M13.5443 1.91243C13.9348 1.5219 13.9348 0.88874 13.5443 0.498215C13.1537 0.107691 12.5206 0.107691 12.13 0.498215L13.5443 1.91243ZM7.18029 6.86218L6.47318 7.56928L7.18029 8.27639L7.8874 7.56928L7.18029 6.86218ZM2.23054 0.498215C1.84002 0.107691 1.20686 0.107691 0.816331 0.498215C0.425806 0.88874 0.425806 1.5219 0.816331 1.91243L2.23054 0.498215ZM12.13 0.498215L6.47318 6.15507L7.8874 7.56928L13.5443 1.91243L12.13 0.498215ZM7.8874 6.15507L2.23054 0.498215L0.816331 1.91243L6.47318 7.56928L7.8874 6.15507Z" fill="#2C2C2C"></path>
                              </svg>