<svg id="change_circle_black_24dp" xmlns="http://www.w3.org/2000/svg" width="24" height="24" viewBox="0 0 24 24">
  <rect id="Rectangle_24" data-name="Rectangle 24" width="24" height="24" fill="none"/>
  <path id="Path_567" data-name="Path 567" d="M14,2A12,12,0,1,0,26,14,12,12,0,0,0,14,2Zm1.092,19.38a.6.6,0,0,1-1.02-.42V20H14a5.99,5.99,0,0,1-5.616-8.112.9.9,0,0,1,1.488-.3h0a.935.935,0,0,1,.2.984A4.165,4.165,0,0,0,14.084,18.2V17.072a.594.594,0,0,1,1.02-.42L17.048,18.6a.594.594,0,0,1,0,.852Zm3.036-4.956h0a.935.935,0,0,1-.2-.984,4.18,4.18,0,0,0-4-5.64h0v1.128a.594.594,0,0,1-1.02.42L10.952,9.416a.594.594,0,0,1,0-.852L12.9,6.62a.6.6,0,0,1,1.02.42v.972a5.911,5.911,0,0,1,4.32,1.74,6.006,6.006,0,0,1,1.368,6.36A.889.889,0,0,1,18.128,16.424Z" transform="translate(-2 -2)" fill="#585858"/>
</svg>
