<svg id="upgrade_black_24dp" xmlns="http://www.w3.org/2000/svg" width="24" height="24" viewBox="0 0 24 24">
  <rect id="Rectangle_22" data-name="Rectangle 22" width="24" height="24" transform="translate(0 0)" fill="none"/>
  <path id="Path_564" data-name="Path 564" d="M20.165,26.7h0a1.525,1.525,0,0,1-1.521,1.521H9.521A1.525,1.525,0,0,1,8,26.7H8a1.525,1.525,0,0,1,1.521-1.521h9.124A1.525,1.525,0,0,1,20.165,26.7Zm-7.6-16.743v10.66a1.525,1.525,0,0,0,1.521,1.521h0A1.525,1.525,0,0,0,15.6,20.614V9.954h2.722a.753.753,0,0,0,.532-1.293L14.615,4.434a.781.781,0,0,0-1.08,0L9.308,8.662A.753.753,0,0,0,9.84,9.954Z" transform="translate(-2 -4.217)" fill="#585858"/>
</svg>
