<svg id="logout_black_24dp" xmlns="http://www.w3.org/2000/svg" width="24" height="24" viewBox="0 0 24 24">
  <g id="Group_69" data-name="Group 69">
    <path id="Path_570" data-name="Path 570" d="M0,0H24V24H0Z" fill="none"/>
  </g>
  <g id="Group_71" data-name="Group 71" transform="translate(-3 -3)">
    <g id="Group_70" data-name="Group 70" transform="translate(3 3)">
      <path id="Path_571" data-name="Path 571" d="M5,5.667h6c.55,0,1-.6,1-1.333h0C12,3.6,11.55,3,11,3H5C3.9,3,3,4.2,3,5.667V24.333C3,25.8,3.9,27,5,27h6c.55,0,1-.6,1-1.333h0c0-.733-.45-1.333-1-1.333H5Z" transform="translate(-3 -3)" fill="#585858"/>
      <path id="Path_572" data-name="Path 572" d="M20.65,11.65,17.86,8.86a.5.5,0,0,0-.86.35V11H10a1,1,0,0,0-1,1H9a1,1,0,0,0,1,1h7v1.79a.5.5,0,0,0,.85.35l2.79-2.79A.492.492,0,0,0,20.65,11.65Z" transform="translate(2.93 0)" fill="#585858"/>
    </g>
  </g>
</svg>
