<svg id="star_half_black_24dp" xmlns="http://www.w3.org/2000/svg" width="25.102" height="24" viewBox="0 0 25.102 24">
  <path id="Path_573" data-name="Path 573" d="M0,0H24V24H0Z" fill="none"/>
  <path id="Path_574" data-name="Path 574" d="M27.21,11.6l-7.1-.616L17.341,4.453a1.467,1.467,0,0,0-2.7,0l-2.772,6.54-7.083.6a1.463,1.463,0,0,0-.836,2.566l5.382,4.663L7.721,25.747A1.463,1.463,0,0,0,9.906,27.33l6.086-3.666,6.086,3.681a1.463,1.463,0,0,0,2.185-1.584l-1.613-6.936,5.382-4.663A1.46,1.46,0,0,0,27.21,11.6Zm-5.69,12.67Z" transform="translate(-3.443 -3.563)" fill="#585858"/>
</svg>
