<svg xmlns="http://www.w3.org/2000/svg" width="182" height="33.784" viewBox="0 0 182 33.784">
  <g id="Vector_Smart_Object" data-name="Vector Smart Object" transform="translate(-876 -24)">
    <g id="Vector_Smart_Object-2" data-name="Vector Smart Object" transform="translate(876 24)">
      <g id="Group_1" data-name="Group 1" transform="translate(0)">
        <path id="Path_1" data-name="Path 1" d="M101.477,65.656q-.874-1.661-1.719-3.34a17.633,17.633,0,0,0-.694,1.631c-.1.155-1,2.565-2.321,2.166-.814-.245-.583-1.74,1.088-1.835a1.671,1.671,0,0,0-1.63-1.154,2.641,2.641,0,0,0-2.587,2.658,3.056,3.056,0,0,0,4.376,2.792A12.55,12.55,0,0,1,101.477,65.656Z" transform="translate(-88.898 -56.525)" fill="#333" fill-rule="evenodd"/>
        <path id="Path_2" data-name="Path 2" d="M102.3,59.91q1.444,1.669,2.85,3.373l.009-.012c.03-.043.06-.084.091-.125a3.584,3.584,0,0,1,.3-.351,3.157,3.157,0,0,1,.464-.4,3.593,3.593,0,0,1,.768-.394A3.863,3.863,0,0,0,102.3,59.91Z" transform="translate(-88.117 -56.751)" fill="#333" fill-rule="evenodd"/>
        <path id="Path_3" data-name="Path 3" d="M98.069,57.01c-.222.16.86,2.482,1.984,4.743,1.1,2.214,2.246,4.368,2.246,4.368.34.261,1.011-.008,1.6-.374.566-.4,1.074-.909.965-1.321,0,0-1.55-1.886-3.172-3.755C100.033,58.761,98.3,56.868,98.069,57.01Z" transform="translate(-88.5 -57.002)" fill="#333" fill-rule="evenodd"/>
        <path id="Path_4" data-name="Path 4" d="M106.782,62.777a3.189,3.189,0,0,0-1.678,2.252c-.167,1.8,1.746,2.888,2.409,3.894a.838.838,0,0,1-.072,1.174,1.526,1.526,0,0,1-1.606.017c.039.44.183,1.273,1.64,1.348a1.85,1.85,0,0,0,1.9-1.718,4.807,4.807,0,0,0-.1-2.08c-.444-1.386-1.561-2.426.368-4.2C108.311,62.586,107.4,62.549,106.782,62.777Z" transform="translate(-87.866 -56.494)" fill="#333" fill-rule="evenodd"/>
        <path id="Path_5" data-name="Path 5" d="M111.674,61.616a9.44,9.44,0,0,0-1.622,1.113q1.4,1.313.261,5.12A8.535,8.535,0,0,0,111.674,61.616Z" transform="translate(-87.421 -56.588)" fill="#333" fill-rule="evenodd"/>
        <path id="Path_6" data-name="Path 6" d="M97.954,74.506a8.455,8.455,0,0,1-1.685-3.565.2.2,0,0,1,.015-.133,9.452,9.452,0,0,1,.756-1.308l.034-.051a3.483,3.483,0,0,1-1.2-.075,4.115,4.115,0,0,1-2.628-1.892h0l-.034-.057c-.107-.171-.191-.187-.378-.046-.4.373-.371.888-.251,1.849a6.695,6.695,0,0,0,.486,1.606,6.82,6.82,0,0,0,.845,1.408,7.853,7.853,0,0,0,1.145,1.006c.127.09.256.176.388.258.172.108.35.206.532.3q.171.087.34.159a5.866,5.866,0,0,0,1.738.612A.214.214,0,0,1,97.954,74.506Z" transform="translate(-88.998 -56.079)" fill="#333" fill-rule="evenodd"/>
        <path id="Path_7" data-name="Path 7" d="M95.732,74.69q-.316-.158-.615-.344c-.152-.093-.3-.193-.446-.3a8.887,8.887,0,0,1-1.3-1.141l-.033-.036-.03-.039a7.858,7.858,0,0,1-.975-1.625,7.657,7.657,0,0,1-.336-.9,7.785,7.785,0,0,1-.334-2.477,3.3,3.3,0,0,0-.287.274c-.047.05-.092.1-.135.154s-.083.105-.123.159c-.086.117-.166.237-.243.361s-.16.273-.231.414a6.465,6.465,0,0,0-.393.956A6.627,6.627,0,0,0,90,71.234a6.133,6.133,0,0,0-.062,1.15,5.537,5.537,0,0,0,.169,1.158A11.077,11.077,0,0,0,91.618,76a11.214,11.214,0,0,0,2.08,1.978,11.031,11.031,0,0,0,1.219.775c.106.058.213.115.321.17l.113.056.016.008.06.029.063.029.122.056c.1.045.2.089.305.131a11.064,11.064,0,0,0,1.234.43l.058.016.131.036.443.128a11.229,11.229,0,0,0,2.495.279,11.389,11.389,0,0,0,1.147-.058c-.012-.258-.017-.517-.012-.778a11.837,11.837,0,0,1,1.006-4.6C100,75.545,98.107,75.877,95.732,74.69Z" transform="translate(-89.228 -56.03)" fill="#333" fill-rule="evenodd"/>
        <path id="Path_8" data-name="Path 8" d="M101.291,67.3a1.55,1.55,0,0,0,2.857-.111.153.153,0,0,1,.287.107,1.856,1.856,0,0,1-3.423.132.153.153,0,0,1,.279-.127Z" transform="translate(-88.234 -56.096)" fill="#333" fill-rule="evenodd"/>
        <path id="Path_9" data-name="Path 9" d="M113.846,70.885a13.166,13.166,0,0,0-.891-3.317c-.054.079-.111.154-.168.226a.7.7,0,0,1-.1.1.994.994,0,0,1-.128.094c.026.359.036.722.031,1.089a11.974,11.974,0,0,1-.847,4.241,12.131,12.131,0,0,1-1.78,3.168,12.22,12.22,0,0,1-2.615,2.487,12.148,12.148,0,0,1-5.1,2.062,12.246,12.246,0,0,1-5.539-.4,12.061,12.061,0,0,1-1.658-.651A12.206,12.206,0,0,1,89.6,74.8a5.437,5.437,0,0,0-.22.834,5.834,5.834,0,0,0-.095,1.048,6.75,6.75,0,0,0,.072.99,7.636,7.636,0,0,0,.218,1,8.338,8.338,0,0,0,.358.992,9.165,9.165,0,0,0,.493.968,9.751,9.751,0,0,0,1.356,1.792,9.981,9.981,0,0,0,1.794,1.486c.167.108.337.21.51.308q.226.128.457.245.255.13.512.249a13.261,13.261,0,0,0,4.479,1.169,13.5,13.5,0,0,0,2.122.005,13.307,13.307,0,0,0,3.557-.767,13.326,13.326,0,0,0,3.133-1.644,13.4,13.4,0,0,0,3.6-3.809,13.213,13.213,0,0,0,1.462-3.23,13.252,13.252,0,0,0,.55-3.622A13.248,13.248,0,0,0,113.846,70.885Z" transform="translate(-89.286 -56.053)" fill="#333" fill-rule="evenodd"/>
        <path id="Path_10" data-name="Path 10" d="M116.572,70.559A14.2,14.2,0,0,0,115.2,67.94a14.362,14.362,0,0,0-1.594-1.984c-.074.2-.158.41-.249.614a14.432,14.432,0,0,1,.564,1.374,15.23,15.23,0,0,1,.515,1.8,14.778,14.778,0,0,1,.3,1.955q.041.486.047.974l-.013.753q-.018.411-.06.82a14.2,14.2,0,0,1-2.009,5.968,14.376,14.376,0,0,1-10.111,6.734,14.651,14.651,0,0,1-1.635.154l-.416.01c-.105,0-.21,0-.316,0-.175,0-.351-.008-.527-.017a14.932,14.932,0,0,1-2.084-.255A14.188,14.188,0,0,1,95.6,86.3a13.344,13.344,0,0,1-1.887-.83,12.131,12.131,0,0,1-1.847-1.218,14.283,14.283,0,0,0,23.637-1.1,14.156,14.156,0,0,0,1.314-2.81,13.917,13.917,0,0,0,.423-1.519,14.286,14.286,0,0,0,.194-4.977,14.119,14.119,0,0,0-.335-1.678A13.894,13.894,0,0,0,116.572,70.559Z" transform="translate(-89.055 -56.198)" fill="#333" fill-rule="evenodd"/>
      </g>
      <path id="Path_11" data-name="Path 11" d="M229.2,89.743,239.727,71.4c.255-.444.346-.6-.3-.6h-1.955c-.436,0-.627.131-.895.593l-4.138,7.158c-.207.357-.328.364-.45,0L229.6,71.4c-.1-.3-.325-.6-.639-.6h-1.969c-.367,0-.376.224-.266.555l3.369,10.2a1.249,1.249,0,0,1-.079,1.183l-4.135,7.15c-.134.231-.1.37.2.37h2.126a.936.936,0,0,0,.986-.52Zm-41.92-6.174c.386.505.979.56,1.122-.417l2.847-19.59c.062-.423-.09-.514-.4-.514h-1.907a.42.42,0,0,0-.43.348L186.414,77.32c-.074.505-.227.334-.441.053L175.139,63.166c-.386-.505-.944-.533-1.087.444l-2.92,19.936c-.043.292.058.376.245.376h2.183c.224,0,.325-.1.362-.376l2.071-14.116c.074-.505.243-.334.457-.054l10.826,14.194Zm18.156-7.731a4.073,4.073,0,0,1,.208,1.3,4.915,4.915,0,0,1-1.071,3.2q-.11.136-.231.265a4.242,4.242,0,0,1-3.217,1.4,4.014,4.014,0,0,1-2.705-.983q-.156-.134-.3-.286a4.308,4.308,0,0,1-1.235-3.121,4.837,4.837,0,0,1,1.325-3.356,4.017,4.017,0,0,1,3.048-1.448,4.239,4.239,0,0,1,3.077,1.3,4.729,4.729,0,0,1,.785,1.008,3.956,3.956,0,0,1,.32.713Zm-11.553,1.735a6.67,6.67,0,0,0,1.9,4.771,6.111,6.111,0,0,0,4.569,1.98,6.216,6.216,0,0,0,3.516-1.286c.375-.274.678-.327.569.426a5.461,5.461,0,0,1-1.486,2.9,4.8,4.8,0,0,1-3.509,1.42,3.2,3.2,0,0,1-3.354-2.492c-.038-.143-.149-.629-.516-.629H193.79c-.345,0-.387.284-.322.725a5.339,5.339,0,0,0,1.978,3.475,6.47,6.47,0,0,0,4.03,1.4,7.779,7.779,0,0,0,5.1-1.9,7.222,7.222,0,0,0,2.684-4.575l1.852-12.309c.058-.463-.132-.678-.6-.678h-1.64a.556.556,0,0,0-.576.543l-.387,2.489a4.572,4.572,0,0,0-1.9-2.421,5.375,5.375,0,0,0-3.02-.912,7.147,7.147,0,0,0-7.107,7.075Zm-58.3-14.181-7.713,7.586c-.209.206-.312.033-.288-.126l1.059-7.262c.041-.363-.09-.543-.423-.543h-1.873a.448.448,0,0,0-.478.43l-2.924,20.065c-.043.292.058.378.244.378h2.185c.209,0,.311-.094.353-.326l1.347-9.231c.067-.461.152-.616.493-.208l7.844,9.372a1.1,1.1,0,0,0,.843.392H138.9c.288,0,.332-.144.115-.4l-8.61-10.293a.574.574,0,0,1,.04-.863l9.023-8.929c.242-.24.122-.385-.216-.385H136.4a1.032,1.032,0,0,0-.819.344Zm108.139,11.94c-.125.367.008.67.35.67h6.6c.4,0,.5-.318.36-.783-1.018-2.954-4.388-2.859-6.067-1.567a3.825,3.825,0,0,0-1.238,1.679ZM243.41,78.7a3.83,3.83,0,0,0,3.955,3.473,5.252,5.252,0,0,0,3.458-1.733c.49-.476.694,0,1.666.974.221.218.206.4-.021.658-4.018,4.369-11.812,2.191-11.812-4.4,0-6.284,7.428-9.465,11.4-5.324,2.013,2.1,2.277,5.732,1.089,5.732h-9.374c-.342,0-.421.244-.358.622Zm-99.687-3.372c-.125.367.008.67.35.67h6.6c.4,0,.5-.318.359-.783-1.017-2.954-4.388-2.859-6.067-1.567a3.826,3.826,0,0,0-1.238,1.679Zm-.309,3.372a3.83,3.83,0,0,0,3.955,3.473,5.252,5.252,0,0,0,3.458-1.733c.489-.476.693,0,1.666.974.22.218.206.4-.021.658-4.019,4.369-11.812,2.191-11.812-4.4,0-6.284,7.428-9.465,11.4-5.324,2.013,2.1,2.277,5.732,1.089,5.732h-9.374c-.341,0-.42.244-.358.622Zm112,4.841,1.791-12.2a.556.556,0,0,1,.576-.543h1.6c.474,0,.662.225.592.71l-.162,1.111c-.038.258.032.417.3.154a11.249,11.249,0,0,1,2.037-1.622,4.62,4.62,0,0,1,2.408-.654,3.515,3.515,0,0,1,2.571,1.169,3.714,3.714,0,0,1,1.134,2.651,4.046,4.046,0,0,1-.033.57l-1.292,8.656c-.037.273-.137.376-.362.376h-2.155c-.187,0-.287-.085-.245-.376l1.2-7.957a4.014,4.014,0,0,0,.027-.537,2.244,2.244,0,0,0-.583-1.616,2.018,2.018,0,0,0-1.544-.621,3.429,3.429,0,0,0-2.723,1.56,8.77,8.77,0,0,0-1.6,4.139l-.741,5.032c-.037.273-.137.376-.361.376h-2.185c-.187,0-.287-.085-.245-.376Zm-99.95,0,1.791-12.2a.556.556,0,0,1,.576-.543h1.6c.474,0,.662.225.591.71l-.162,1.111c-.037.258.032.417.3.154a11.231,11.231,0,0,1,2.037-1.622,4.62,4.62,0,0,1,2.408-.654,3.515,3.515,0,0,1,2.571,1.169,3.716,3.716,0,0,1,1.134,2.651,3.964,3.964,0,0,1-.034.57l-1.291,8.656c-.037.273-.137.376-.362.376h-2.155c-.187,0-.288-.085-.245-.376l1.2-7.957a3.906,3.906,0,0,0,.028-.537,2.245,2.245,0,0,0-.584-1.616,2.016,2.016,0,0,0-1.543-.621,3.428,3.428,0,0,0-2.723,1.56,8.769,8.769,0,0,0-1.6,4.139l-.741,5.032c-.037.273-.137.376-.362.376h-2.184c-.187,0-.288-.085-.245-.376ZM224.388,71.5c.071-.485-.119-.7-.593-.7h-1.6a.556.556,0,0,0-.576.543l-1.169,7.634a2.811,2.811,0,0,1-1.145,1.874,3.635,3.635,0,0,1-2.29.755q-2.484,0-2.487-1.985l.034-.464,1.2-7.647c.137-.944-.766-.71-2.223-.71a.556.556,0,0,0-.576.543l-.907,6.024c-.011.1-.067.392-.157.884a9.347,9.347,0,0,0-.14,1.762,3.889,3.889,0,0,0,1.454,3.049,5.2,5.2,0,0,0,3.531,1.263,6.716,6.716,0,0,0,4.384-1.443,5.863,5.863,0,0,0,2.111-3.87Z" transform="translate(-86.264 -56.48)" fill="#333" fill-rule="evenodd"/>
    </g>
    <path id="Color_Overlay" data-name="Color Overlay" d="M139.819,33.188c-.3,0-.334-.137-.2-.364l4.135-7.024a1.209,1.209,0,0,0,.078-1.162l-3.368-10.025c-.11-.325-.1-.545.266-.545h1.97c.314,0,.536.289.638.589l2.39,7.024c.123.358.244.353.45,0l4.138-7.032c.268-.454.459-.583.9-.583h1.954c.643,0,.552.156.3.593L142.931,32.677a.939.939,0,0,1-.986.512Zm-30.638-1.38a5.224,5.224,0,0,1-1.978-3.414c-.064-.434-.023-.712.323-.712H109.3c.367,0,.479.478.516.619a3.192,3.192,0,0,0,3.354,2.447,4.842,4.842,0,0,0,3.508-1.4,5.341,5.341,0,0,0,1.486-2.845c.109-.74-.193-.688-.569-.418a6.293,6.293,0,0,1-3.516,1.263,6.166,6.166,0,0,1-4.57-1.944,6.491,6.491,0,0,1-1.9-4.687,6.626,6.626,0,0,1,2.1-4.9,6.915,6.915,0,0,1,5.007-2.05,5.439,5.439,0,0,1,3.02.9,4.508,4.508,0,0,1,1.9,2.379l.386-2.445a.553.553,0,0,1,.577-.533h1.64c.463,0,.653.211.6.667l-1.851,12.091a7.069,7.069,0,0,1-2.684,4.494,7.865,7.865,0,0,1-5.1,1.868A6.54,6.54,0,0,1,109.181,31.808Zm2.756-14.339a4.7,4.7,0,0,0-1.325,3.3,4.193,4.193,0,0,0,1.235,3.066c.1.1.2.194.3.281a4.058,4.058,0,0,0,2.705.965,4.281,4.281,0,0,0,3.217-1.379c.08-.085.157-.172.23-.26a4.78,4.78,0,0,0,1.071-3.141,3.943,3.943,0,0,0-.208-1.281,3.81,3.81,0,0,0-.32-.7,4.628,4.628,0,0,0-.786-.991,4.278,4.278,0,0,0-3.077-1.281A4.046,4.046,0,0,0,111.938,17.469ZM13.365,33.161a14.542,14.542,0,0,1-2.577-.388A14.358,14.358,0,0,1,6.2,30.75a14.22,14.22,0,0,1-3.39-3.2,12.14,12.14,0,0,0,1.847,1.2,13.427,13.427,0,0,0,1.887.815,14.411,14.411,0,0,0,2.01.535,15.3,15.3,0,0,0,2.084.251c.175.008.351.014.527.015.106,0,.211,0,.317,0l.416-.01a14.967,14.967,0,0,0,1.634-.151,14.492,14.492,0,0,0,5.854-2.243,14.372,14.372,0,0,0,2.369-1.96,14.149,14.149,0,0,0,1.889-2.412,13.943,13.943,0,0,0,1.327-2.786,13.685,13.685,0,0,0,.681-3.078c.028-.267.048-.536.06-.8l.014-.74q-.006-.478-.047-.956a14.285,14.285,0,0,0-.3-1.921,14.874,14.874,0,0,0-.514-1.771A14.259,14.259,0,0,0,24.3,10.19c.091-.2.175-.4.249-.6a14.2,14.2,0,0,1,1.594,1.949,13.933,13.933,0,0,1,1.373,2.573,13.483,13.483,0,0,1,.527,1.573,13.674,13.674,0,0,1,.334,1.648,13.742,13.742,0,0,1-.194,4.89,13.4,13.4,0,0,1-.423,1.492,13.79,13.79,0,0,1-1.314,2.76,14,14,0,0,1-1.873,2.391,14.314,14.314,0,0,1-5.092,3.359,14.4,14.4,0,0,1-3.055.806,14.718,14.718,0,0,1-1.62.15c-.187.007-.375.011-.562.011Q13.8,33.188,13.365,33.161ZM10.248,29.3a13.647,13.647,0,0,1-2.317-.387,13.483,13.483,0,0,1-2.162-.761q-.257-.117-.512-.245-.231-.116-.457-.241c-.173-.1-.342-.2-.509-.3A9.919,9.919,0,0,1,2.5,25.9a9.69,9.69,0,0,1-.737-.851,9.559,9.559,0,0,1-.619-.91,8.755,8.755,0,0,1-.492-.951,8.025,8.025,0,0,1-.358-.975,7.31,7.31,0,0,1-.219-.981A6.459,6.459,0,0,1,0,20.264a5.507,5.507,0,0,1,.1-1.03,5.229,5.229,0,0,1,.22-.819,11.993,11.993,0,0,0,1.7,2.357,12.272,12.272,0,0,0,5.411,3.385,12.455,12.455,0,0,0,1.767.4,12.687,12.687,0,0,0,1.854.137,12.533,12.533,0,0,0,1.918-.147A12.258,12.258,0,0,0,16.5,23.435a12.111,12.111,0,0,0,1.566-.916,12.178,12.178,0,0,0,2.616-2.444,12.1,12.1,0,0,0,1.005-1.485,11.8,11.8,0,0,0,.774-1.627A11.579,11.579,0,0,0,23.3,12.8c.006-.36,0-.717-.03-1.07a1.047,1.047,0,0,0,.128-.092.7.7,0,0,0,.1-.1c.057-.07.114-.145.168-.222a12.789,12.789,0,0,1,.892,3.259,12.858,12.858,0,0,1-.436,5.451,12.927,12.927,0,0,1-2.493,4.573,13.353,13.353,0,0,1-2.571,2.341,13.018,13.018,0,0,1-1.506.908,13.2,13.2,0,0,1-1.627.708,13.394,13.394,0,0,1-1.734.493,13.548,13.548,0,0,1-1.823.26q-.516.039-1.033.039C10.974,29.343,10.61,29.328,10.248,29.3ZM154.393,20.82c0-6.173,7.427-9.3,11.4-5.23,2.014,2.064,2.278,5.631,1.089,5.631H157.5c-.341,0-.421.24-.357.611a3.808,3.808,0,0,0,3.955,3.412,5.288,5.288,0,0,0,3.458-1.7c.49-.467.694,0,1.666.957.221.215.206.394-.021.647a7.044,7.044,0,0,1-5.174,2.232A6.415,6.415,0,0,1,154.393,20.82Zm4.3-3.95a3.774,3.774,0,0,0-1.239,1.651c-.125.359.008.657.35.657h6.6c.4,0,.5-.312.36-.768a3.454,3.454,0,0,0-3.429-2.383A4.484,4.484,0,0,0,158.693,16.87ZM54.4,20.82c0-6.173,7.428-9.3,11.4-5.23,2.014,2.064,2.277,5.631,1.089,5.631H57.508c-.341,0-.42.24-.357.611a3.808,3.808,0,0,0,3.955,3.412,5.29,5.29,0,0,0,3.458-1.7c.489-.467.693,0,1.666.957.22.215.206.394-.021.647a7.046,7.046,0,0,1-5.175,2.232A6.415,6.415,0,0,1,54.4,20.82Zm4.3-3.95a3.775,3.775,0,0,0-1.239,1.651c-.124.359.009.657.351.657h6.6c.4,0,.5-.312.359-.768a3.454,3.454,0,0,0-3.429-2.383A4.484,4.484,0,0,0,58.7,16.87Zm68.251,9.242a3.793,3.793,0,0,1-1.455-2.995,9.032,9.032,0,0,1,.14-1.73c.09-.484.146-.77.158-.868L126.7,14.6a.552.552,0,0,1,.576-.533c1.457,0,2.361-.23,2.224.7l-1.2,7.512-.033.456q0,1.953,2.487,1.95a3.672,3.672,0,0,0,2.289-.742,2.755,2.755,0,0,0,1.146-1.84l1.169-7.5a.552.552,0,0,1,.576-.533h1.6c.474,0,.663.213.592.69l-1.15,7.376a5.731,5.731,0,0,1-2.11,3.8,6.793,6.793,0,0,1-4.384,1.417A5.258,5.258,0,0,1,126.948,26.112Zm-25.937.5L90.184,12.668c-.214-.276-.382-.443-.456.053L87.657,26.588c-.037.268-.137.37-.362.37H85.113c-.187,0-.288-.083-.245-.37L87.787,7c.144-.96.7-.933,1.088-.436L99.708,20.526c.214.276.367.444.44-.053L102.241,6.8a.418.418,0,0,1,.43-.342h1.907c.313,0,.465.089.4.5L102.133,26.2c-.08.541-.3.76-.551.76A.786.786,0,0,1,101.011,26.612Zm77.148.346c-.187,0-.287-.083-.245-.37l1.2-7.817a3.85,3.85,0,0,0,.027-.527,2.184,2.184,0,0,0-.583-1.588,2.038,2.038,0,0,0-1.544-.61,3.442,3.442,0,0,0-2.723,1.533,8.533,8.533,0,0,0-1.6,4.066l-.741,4.943c-.036.268-.137.37-.361.37H169.4c-.186,0-.287-.083-.244-.37l1.79-11.987a.553.553,0,0,1,.577-.533h1.6c.474,0,.662.221.591.7l-.162,1.091c-.038.254.032.41.3.151a11.243,11.243,0,0,1,2.038-1.594,4.685,4.685,0,0,1,2.408-.643,3.542,3.542,0,0,1,2.571,1.149,3.615,3.615,0,0,1,1.134,2.6,3.915,3.915,0,0,1-.033.561l-1.292,8.5c-.037.268-.136.37-.361.37Zm-99.951,0c-.186,0-.287-.083-.244-.37l1.195-7.817a3.664,3.664,0,0,0,.028-.527,2.184,2.184,0,0,0-.584-1.588,2.037,2.037,0,0,0-1.544-.61,3.443,3.443,0,0,0-2.723,1.533,8.522,8.522,0,0,0-1.6,4.066L72,26.588c-.037.268-.136.37-.361.37H69.45c-.187,0-.288-.083-.245-.37L71,14.6a.552.552,0,0,1,.577-.533h1.6c.474,0,.662.221.591.7L73.6,15.856c-.037.254.032.41.3.151a11.234,11.234,0,0,1,2.037-1.594,4.69,4.69,0,0,1,2.409-.643,3.545,3.545,0,0,1,2.571,1.149,3.619,3.619,0,0,1,1.134,2.6,3.762,3.762,0,0,1-.034.561l-1.291,8.5c-.037.268-.137.37-.362.37Zm-28.225,0a1.112,1.112,0,0,1-.844-.385L41.3,17.366c-.341-.4-.426-.249-.493.2l-1.347,9.068c-.042.228-.144.321-.353.321H36.919c-.186,0-.287-.085-.244-.372L39.6,6.876a.446.446,0,0,1,.479-.423H41.95c.334,0,.464.176.423.533L41.314,14.12c-.024.156.079.327.288.124l7.713-7.453a1.043,1.043,0,0,1,.819-.338H52.99c.338,0,.458.143.216.378L44.183,15.6a.556.556,0,0,0-.04.847l8.61,10.111c.217.255.173.4-.115.4ZM8.556,23.388l-.443-.125-.13-.036-.059-.015a11.264,11.264,0,0,1-1.234-.422c-.1-.042-.2-.085-.3-.129L6.263,22.6,6.2,22.577c-.02-.011-.04-.019-.06-.029l-.017-.008-.113-.055c-.108-.054-.215-.11-.321-.167a11.12,11.12,0,0,1-3.3-2.7A10.863,10.863,0,0,1,.877,17.2a5.378,5.378,0,0,1-.169-1.138A5.88,5.88,0,0,1,.77,14.936a6.409,6.409,0,0,1,.254-1.065,6.312,6.312,0,0,1,.393-.939c.072-.139.148-.274.232-.407s.157-.24.242-.355q.06-.079.124-.156c.043-.052.088-.1.134-.151a3.419,3.419,0,0,1,.286-.27,7.572,7.572,0,0,0,.67,3.319,7.732,7.732,0,0,0,.975,1.6l.03.038.033.035a8.818,8.818,0,0,0,1.3,1.121q.218.155.446.292c.2.121.4.234.615.337,2.375,1.166,4.268.84,6.687-.011a11.446,11.446,0,0,0-1.006,4.521c0,.256,0,.511.012.764q-.565.056-1.147.057A11.4,11.4,0,0,1,8.556,23.388Zm-1.241-5.82c-.113-.047-.226-.1-.34-.156-.181-.09-.36-.186-.532-.292-.132-.08-.261-.165-.387-.253a7.769,7.769,0,0,1-1.145-.989A6.738,6.738,0,0,1,4.066,14.5a6.559,6.559,0,0,1-.486-1.577c-.12-.944-.15-1.45.251-1.816.187-.139.271-.123.379.045.011.018.023.037.033.056h0a4.113,4.113,0,0,0,2.627,1.858,3.521,3.521,0,0,0,1.2.073l-.034.05a9.259,9.259,0,0,0-.755,1.285.185.185,0,0,0-.015.13,8.23,8.23,0,0,0,1.685,3.5.213.213,0,0,0,.1.066A5.944,5.944,0,0,1,7.315,17.569Zm10.653-4.189a1.549,1.549,0,0,0,1.607-.016.814.814,0,0,0,.072-1.153c-.663-.988-2.576-2.058-2.409-3.825a3.138,3.138,0,0,1,1.678-2.211,3.208,3.208,0,0,1,2.858.679c-1.929,1.737-.811,2.76-.368,4.121a4.648,4.648,0,0,1,.1,2.043,1.837,1.837,0,0,1-1.9,1.687C18.152,14.63,18.007,13.812,17.968,13.379Zm-5.19-2.249a.149.149,0,0,1,.076-.2.154.154,0,0,1,.2.073,1.561,1.561,0,0,0,2.857-.109.153.153,0,0,1,.2-.089A.149.149,0,0,1,16.2,11a1.849,1.849,0,0,1-1.666,1.184h-.073A1.861,1.861,0,0,1,12.778,11.13Zm-5.059,1a3.018,3.018,0,0,1-3-3.037A2.616,2.616,0,0,1,7.3,6.481c.521-.024,1.506.374,1.63,1.134-1.67.093-1.9,1.562-1.088,1.8,1.323.392,2.218-1.974,2.322-2.127a17.091,17.091,0,0,1,.693-1.6Q11.7,7.335,12.58,8.97a12.49,12.49,0,0,0-3.488,2.866,3.1,3.1,0,0,1-1.323.294Zm14.912-6.1A9.4,9.4,0,0,1,24.253,4.94a8.276,8.276,0,0,1-1.361,6.124Q24.035,7.323,22.631,6.034ZM13.8,8.957s-1.144-2.116-2.246-4.291C10.428,2.446,9.347.164,9.569.007c.234-.139,1.965,1.721,3.62,3.6,1.622,1.836,3.172,3.689,3.172,3.689.109.4-.4.907-.964,1.3a2.733,2.733,0,0,1-1.247.469A.57.57,0,0,1,13.8,8.957ZM14.182,3.1A3.879,3.879,0,0,1,18.66,5.159a3.6,3.6,0,0,0-.768.387,3.084,3.084,0,0,0-.464.391,3.466,3.466,0,0,0-.3.345c-.031.04-.061.08-.091.122l-.009.012Q15.628,4.744,14.182,3.1Z" transform="translate(876 24.199)" fill="#c41320"/>
  </g>
</svg>
