<svg xmlns="http://www.w3.org/2000/svg" width="46.04" height="82.939" viewBox="0 0 46.04 82.939">
  <g id="Group_216" data-name="Group 216" transform="translate(-274 -569)">
    <rect id="Rounded_Rectangle_11" data-name="Rounded Rectangle 11" width="46.04" height="82.939" rx="4" transform="translate(274 569)" fill="#333"/>
    <g id="Group_215" data-name="Group 215" transform="translate(27.981 -39.925)">
      <text id="MAKE_THIS_" data-name="MAKE
THIS !" transform="translate(269.02 630.925)" fill="#fff" font-size="12" font-family="Helvetica" letter-spacing="0.01em"><tspan x="-17.184" y="0">MAKE</tspan><tspan x="-17.301" y="15.6">THIS !</tspan></text>
      <g id="cut" transform="translate(259 664)">
        <path id="Path_867" data-name="Path 867" d="M0,0H20V20H0Z" transform="translate(0 0)" fill="none"/>
        <path id="Path_868" data-name="Path 868" d="M9.639,7.639a3.924,3.924,0,0,0,.34-2.09A4,4,0,1,0,5.549,9.969a3.941,3.941,0,0,0,2.09-.34L10,12l-2.36,2.36a3.924,3.924,0,0,0-2.09-.34,4,4,0,1,0,4.419,4.419,3.941,3.941,0,0,0-.34-2.09L12,14l7.589,7.589a1.411,1.411,0,0,0,2.41-1v-.01a1.45,1.45,0,0,0-.41-1ZM6,8A2,2,0,1,1,8,6,2,2,0,0,1,6,8ZM6,20a2,2,0,1,1,2-2A2,2,0,0,1,6,20Zm6-7.5a.5.5,0,1,1,.5-.5A.5.5,0,0,1,12,12.5ZM19.588,2.41,13,9l2,2L21.587,4.41a1.414,1.414,0,0,0,.41-1V3.4A1.411,1.411,0,0,0,19.588,2.41Z" transform="translate(-1.998 -1.993)" fill="#fff"/>
      </g>
    </g>
  </g>
</svg>
