<svg xmlns="http://www.w3.org/2000/svg" width="24" height="24" viewBox="0 0 24 24">
  <g id="tune_black_24dp" transform="translate(0 0)">
    <path id="Path_565" data-name="Path 565" d="M0,0H24V24H0Z" fill="none"/>
    <path id="Path_566" data-name="Path 566" d="M3,23a1.337,1.337,0,0,0,1.333,1.333H11V21.667H4.333A1.337,1.337,0,0,0,3,23ZM3,7A1.337,1.337,0,0,0,4.333,8.333h12V5.667h-12A1.337,1.337,0,0,0,3,7ZM16.333,25.667V24.333h9.333a1.333,1.333,0,0,0,0-2.667H16.333V20.333a1.333,1.333,0,1,0-2.667,0v5.333a1.333,1.333,0,0,0,2.667,0Zm-8-13.333v1.333h-4a1.333,1.333,0,0,0,0,2.667h4v1.333a1.333,1.333,0,0,0,2.667,0V12.333a1.333,1.333,0,0,0-2.667,0ZM27,15a1.337,1.337,0,0,0-1.333-1.333h-12v2.667h12A1.337,1.337,0,0,0,27,15Zm-6.667-4a1.337,1.337,0,0,0,1.333-1.333V8.333h4a1.333,1.333,0,0,0,0-2.667h-4V4.333a1.333,1.333,0,1,0-2.667,0V9.667A1.337,1.337,0,0,0,20.333,11Z" transform="translate(-3 -3)" fill="#c41320"/>
  </g>
</svg>
