<svg id="file_download_black_24dp" xmlns="http://www.w3.org/2000/svg" width="24" height="24" viewBox="0 0 24 24">
  <g id="Group_61" data-name="Group 61">
    <rect id="Rectangle_21" data-name="Rectangle 21" width="24" height="24" fill="none"/>
  </g>
  <g id="Group_62" data-name="Group 62" transform="translate(2)">
    <path id="Path_563" data-name="Path 563" d="M21.362,11.471H19.118V4.412A1.416,1.416,0,0,0,17.706,3H12.059a1.416,1.416,0,0,0-1.412,1.412v7.059H8.4a1.416,1.416,0,0,0-1,2.414l6.48,6.48a1.406,1.406,0,0,0,1.991,0l6.48-6.48A1.412,1.412,0,0,0,21.362,11.471ZM5,25.588A1.416,1.416,0,0,0,6.412,27H23.353a1.412,1.412,0,0,0,0-2.824H6.412A1.416,1.416,0,0,0,5,25.588Z" transform="translate(-5 -3)" fill="#c41320"/>
  </g>
</svg>
