<svg xmlns="http://www.w3.org/2000/svg" width="31" height="31" viewBox="0 0 31 31">
  <g id="Group_256" data-name="Group 256" transform="translate(-528 -620)">
    <g id="Ellipse_12" data-name="Ellipse 12" transform="translate(528 620)" fill="#fff" stroke="#b0bec9" stroke-width="1">
      <circle cx="15.5" cy="15.5" r="15.5" stroke="none"/>
      <circle cx="15.5" cy="15.5" r="15" fill="none"/>
    </g>
    <g id="mail_outline_black_24dp" transform="translate(537 630)">
      <path id="Path_880" data-name="Path 880" d="M14.433,4H3.381A1.38,1.38,0,0,0,2.007,5.381L2,13.67a1.385,1.385,0,0,0,1.381,1.381H14.433a1.385,1.385,0,0,0,1.381-1.381V5.381A1.385,1.385,0,0,0,14.433,4Zm-.691,9.67H4.072a.693.693,0,0,1-.691-.691V6.763l4.794,3a1.368,1.368,0,0,0,1.464,0l4.794-3v6.216A.693.693,0,0,1,13.742,13.67ZM8.907,8.835,3.381,5.381H14.433Z" transform="translate(-2 -4)" fill="#b0bec9"/>
    </g>
  </g>
</svg>
