<svg xmlns="http://www.w3.org/2000/svg" width="31" height="31" viewBox="0 0 31 31">
  <g id="Group_257" data-name="Group 257" transform="translate(-748 -620)">
    <g id="Ellipse_12" data-name="Ellipse 12" transform="translate(748 620)" fill="#fff" stroke="#b0bec9" stroke-width="1">
      <circle cx="15.5" cy="15.5" r="15.5" stroke="none"/>
      <circle cx="15.5" cy="15.5" r="15" fill="none"/>
    </g>
    <g id="person_outline_black_24dp" transform="translate(757 627)">
      <path id="Path_887" data-name="Path 887" d="M10.9,5.64A1.813,1.813,0,1,1,9.092,7.453,1.812,1.812,0,0,1,10.9,5.64m0,7.768c2.563,0,5.265,1.26,5.265,1.813v.949H5.64v-.949c0-.552,2.7-1.813,5.265-1.813M10.9,4a3.452,3.452,0,1,0,3.453,3.453A3.452,3.452,0,0,0,10.9,4Zm0,7.768c-2.3,0-6.9,1.157-6.9,3.453v1.726a.866.866,0,0,0,.863.863H16.947a.866.866,0,0,0,.863-.863V15.221C17.81,12.925,13.21,11.768,10.9,11.768Z" transform="translate(-4 -4)" fill="#b0bec9"/>
    </g>
  </g>
</svg>
